HIERARCHY
ROOT Hips
{
	OFFSET 0.000000 0.000000 0.000000 
	CHANNELS 6 Xposition Yposition Zposition Zrotation Yrotation Xrotation
	JOINT LeftUpLeg
	{
		OFFSET 1.363060 -1.794630 0.839290 
		CHANNELS 3 Zrotation Yrotation Xrotation
		JOINT LeftLeg
		{
			OFFSET 2.448110 -6.726130 0.000000 
			CHANNELS 3 Zrotation Yrotation Xrotation
			JOINT LeftFoot
			{
				OFFSET 2.562200 -7.039590 0.000000 
				CHANNELS 3 Zrotation Yrotation Xrotation
				JOINT LeftToeBase
				{
					OFFSET 0.157640 -0.433110 2.322550 
					CHANNELS 3 Zrotation Yrotation Xrotation
					End Site
					{
						OFFSET 0.000000 0.000000 0.000000 
					}
				}
			}
		}
	}
	JOINT RightUpLeg
	{
		OFFSET -1.305520 -1.794630 0.839290 
		CHANNELS 3 Zrotation Yrotation Xrotation
		JOINT RightLeg
		{
			OFFSET -2.542530 -6.985550 0.000000 
			CHANNELS 3 Zrotation Yrotation Xrotation
			JOINT RightFoot
			{
				OFFSET -2.568260 -7.056230 0.000000 
				CHANNELS 3 Zrotation Yrotation Xrotation
				JOINT RightToeBase
				{
					OFFSET -0.164730 -0.452590 2.363150 
					CHANNELS 3 Zrotation Yrotation Xrotation
					End Site
					{
						OFFSET 0.000000 0.000000 0.000000 
					}
				}
			}
		}
	}
	JOINT Spine
	{
		OFFSET 0.028270 2.035590 -0.193380 
		CHANNELS 3 Zrotation Yrotation Xrotation
		JOINT Spine1
		{
			OFFSET 0.056720 2.048850 -0.042750 
			CHANNELS 3 Zrotation Yrotation Xrotation
			JOINT Neck1
			{
				OFFSET -0.054170 1.746240 0.172020 
				CHANNELS 3 Zrotation Yrotation Xrotation
				JOINT Head
				{
					OFFSET 0.104070 1.761360 -0.123970 
					CHANNELS 3 Zrotation Yrotation Xrotation
					End Site
					{
						OFFSET 0.000000 0.000000 0.000000 
					}
				}
			}
			JOINT LeftArm
			{
				OFFSET 3.362410 1.200890 -0.311210 
				CHANNELS 3 Zrotation Yrotation Xrotation
				JOINT LeftForeArm
				{
					OFFSET 4.983000 -0.000000 -0.000000 
					CHANNELS 3 Zrotation Yrotation Xrotation
					JOINT LeftHand
					{
						OFFSET 3.483560 -0.000000 -0.000000 
						CHANNELS 3 Zrotation Yrotation Xrotation
						JOINT LeftHandIndex1
						{
							OFFSET 0.715260 -0.000000 -0.000000 
							CHANNELS 3 Zrotation Yrotation Xrotation
							End Site
							{
								OFFSET 0.000000 0.000000 0.000000 
							}
						}
					}
				}
			}
			JOINT RightArm
			{
				OFFSET -3.136600 1.374050 -0.404650 
				CHANNELS 3 Zrotation Yrotation Xrotation
				JOINT RightForeArm
				{
					OFFSET -5.241900 -0.000000 -0.000000 
					CHANNELS 3 Zrotation Yrotation Xrotation
					JOINT RightHand
					{
						OFFSET -3.444170 -0.000000 -0.000000 
						CHANNELS 3 Zrotation Yrotation Xrotation
						JOINT RightHandIndex1
						{
							OFFSET -0.622530 -0.000000 -0.000000 
							CHANNELS 3 Zrotation Yrotation Xrotation
							End Site
							{
								OFFSET 0.000000 0.000000 0.000000 
							}
						}
					}
				}
			}
		}
	}
}
MOTION
Frames: 12
Frame Time: 0.041667
3.757101 15.612205 -3.011727 3.919378 19.645999 24.852065 -10.569048 2.278020 -62.331601 9.898457 19.115463 60.887158 2.313030 -13.090194 -3.472700 1.353200 -7.363800 -20.797800 7.383651 -2.857330 -70.560815 -11.426712 -19.598161 64.867348 -1.338458 5.247753 -8.529773 -0.008100 0.580800 -1.596000 2.769893 -0.019282 5.699098 3.920600 0.244942 -1.796590 3.323899 -4.782521 23.403939 2.421200 -2.863000 12.599800 -57.743722 -0.451757 63.432560 49.308008 -53.157627 -28.812467 -0.100066 -0.718710 23.141399 -7.125000 0.000000 0.000000 43.770358 -4.211668 63.455203 -76.698297 56.808651 -51.307762 0.886519 -1.105038 47.040993 7.125000 0.000000 0.000000 
3.734250 15.515140 -3.049845 3.810154 20.327424 24.796355 -10.293312 2.073059 -62.995997 10.188281 19.291001 61.709611 2.386111 -13.719733 -4.002666 1.284800 -7.182800 -20.258100 7.514796 -3.169220 -71.246397 -11.806893 -19.772776 66.008564 -1.366446 5.496768 -8.577383 -0.000900 0.188700 -0.518500 2.688481 0.040058 5.722740 3.803151 0.280413 -1.956232 3.345825 -4.758326 23.583426 2.427600 -2.845400 12.726600 -57.256675 -0.553011 63.299284 49.832214 -53.345095 -29.261655 -0.092907 -0.703451 23.625996 -7.125000 0.000000 0.000000 43.543082 -4.618515 63.493258 -77.442862 56.920512 -51.978441 0.879402 -1.110124 47.666924 7.125000 0.000000 0.000000 
3.711501 15.417671 -3.088165 3.694774 21.017451 24.775157 -10.004027 1.805847 -63.707232 10.469476 19.461220 62.493054 2.454764 -14.132759 -4.733042 1.299200 -7.221300 -20.372700 7.637077 -3.461934 -71.972392 -12.190540 -19.943647 67.152320 -1.372256 5.471403 -8.872980 0.000000 -0.041800 0.114700 2.615029 0.085745 5.741641 3.698464 0.309933 -2.101317 3.322007 -4.701061 23.822119 2.418600 -2.819000 12.880400 -56.861541 -0.609044 63.067348 50.479234 -53.578879 -29.816966 -0.083182 -0.698811 24.094356 -7.125000 0.000000 0.000000 43.344274 -4.969799 63.622825 -78.186029 57.022265 -52.637648 0.894358 -1.097016 48.079460 7.125000 0.000000 0.000000 
3.691178 15.325460 -3.122845 3.574092 21.710056 24.725812 -9.752498 1.533897 -64.337795 10.754814 19.625350 63.284037 2.513908 -14.268280 -5.594300 1.300600 -7.225000 -20.383800 7.759648 -3.805909 -72.654556 -12.574061 -20.106002 68.285834 -1.376381 5.382495 -9.249342 -0.000200 -0.082900 0.227700 2.580689 0.134866 5.877844 3.648704 0.335263 -1.977197 3.290933 -4.600297 23.932952 2.423900 -2.782100 12.975500 -56.671017 -0.816116 62.687822 51.091680 -53.794293 -30.346520 -0.072453 -0.697044 24.530288 -7.125000 0.000000 0.000000 43.170566 -5.072579 63.623151 -78.702679 57.101238 -53.107784 0.877267 -1.107739 48.203812 7.125000 0.000000 0.000000 
3.670754 15.225565 -3.161368 3.372235 22.476237 24.685027 -9.362642 1.177394 -65.065405 11.074309 19.808888 64.183027 2.548536 -14.299114 -6.312654 1.265400 -7.130200 -20.101700 8.002197 -4.229299 -73.411880 -12.969076 -20.264365 69.454929 -1.368788 5.283985 -9.486845 -0.000900 -0.189400 0.520500 2.623988 0.216684 6.040241 3.685572 0.369679 -1.775107 3.260951 -4.531734 24.023980 2.430000 -2.761800 13.075600 -56.565209 -1.135800 62.423273 51.701021 -54.003190 -30.865129 -0.064209 -0.689366 24.749208 -7.125000 0.000000 0.000000 42.847508 -5.127563 63.492013 -79.200692 57.183008 -53.553708 0.822126 -1.153918 48.322806 7.125000 0.000000 0.000000 
3.650026 15.113031 -3.206260 3.217401 23.235989 24.919726 -8.838187 0.628933 -66.145514 11.466549 20.034169 65.312190 2.567768 -14.694363 -6.662471 1.062900 -6.554500 -18.402100 8.204474 -4.621156 -74.515963 -13.376013 -20.431336 70.660143 -1.349518 5.157586 -9.651855 -0.004500 -0.432600 1.188600 2.538160 0.224202 5.990925 3.431491 0.390624 -1.864302 3.337746 -4.474081 24.225724 2.463500 -2.723700 13.202400 -56.169284 -1.231135 62.382729 52.265493 -54.194288 -31.345669 -0.060092 -0.676471 24.884167 -7.125000 0.000000 0.000000 42.720681 -5.496431 63.522120 -79.862007 57.278786 -54.152957 0.789634 -1.175190 48.669933 7.125000 0.000000 0.000000 
3.622019 15.018595 -3.243771 3.122917 24.036529 24.879246 -8.239173 0.108284 -66.882820 11.892902 20.246997 66.530783 2.589290 -15.472831 -6.714725 0.809800 -5.742800 -16.040000 8.359803 -5.056056 -75.185347 -13.766888 -20.569131 71.797160 -1.356404 5.116555 -9.943550 -0.009100 -0.614400 1.688300 2.506797 0.246229 6.029438 3.371171 0.405362 -1.931906 3.455949 -4.404048 24.346636 2.528800 -2.684300 13.281600 -55.909865 -1.371214 62.336005 52.862003 -54.392095 -31.855398 -0.054444 -0.658469 25.232487 -7.125000 0.000000 0.000000 42.522236 -5.936879 63.399102 -80.660563 57.390097 -54.867737 0.734567 -1.209200 48.974436 7.125000 0.000000 0.000000 
3.594922 14.912330 -3.281991 2.915473 24.776434 24.822590 -7.640612 -0.280138 -67.906288 12.314793 20.461351 67.740124 2.578373 -15.812414 -6.836903 0.855700 -5.899200 -16.492300 8.579635 -5.387848 -75.977530 -14.170881 -20.706814 72.977513 -1.343440 4.938586 -10.246842 -0.008900 -0.608500 1.672100 2.493467 0.295912 6.118082 3.303142 0.430003 -1.895835 3.676809 -4.341949 24.361165 2.654700 -2.649100 13.343800 -55.708641 -1.482560 62.084197 53.768878 -54.691916 -32.642152 -0.043342 -0.637300 26.191656 -7.125000 0.000000 0.000000 42.355109 -6.247871 63.203990 -81.445840 57.493504 -55.568507 0.675132 -1.232864 49.245400 7.125000 0.000000 0.000000 
3.570555 14.797369 -3.318289 2.711216 25.386726 24.763147 -7.136882 -0.565883 -69.053682 12.733282 20.667459 68.937403 2.563290 -15.951143 -7.057934 1.038800 -6.482200 -18.190000 8.724891 -5.633975 -76.796343 -14.592459 -20.843583 74.205294 -1.324608 4.724874 -10.544920 -0.012000 -0.706800 1.942500 2.455705 0.371917 6.232801 3.203652 0.468765 -1.810291 3.948495 -4.330922 24.356442 2.794200 -2.628200 13.415000 -55.518954 -1.527109 61.729344 54.889237 -55.055739 -33.622900 -0.027551 -0.616912 27.714935 -7.125000 0.000000 0.000000 42.145211 -6.517547 62.965426 -82.256525 57.489308 -56.358438 1.195622 -0.853340 49.603144 7.125000 0.000000 0.000000 
3.528089 14.721335 -3.325872 2.661817 26.040528 24.205629 -6.725677 -0.714627 -69.270829 13.102898 20.803783 69.950175 2.601096 -16.441281 -7.373992 1.138600 -6.776500 -19.054900 8.794816 -6.000041 -76.737266 -15.010018 -20.938997 75.390277 -1.347254 4.631966 -11.056608 -0.022800 -0.974100 2.677600 2.492575 0.494069 6.405800 3.508730 0.506633 -1.882631 4.059533 -4.309093 24.203932 2.861100 -2.617300 13.353300 -55.397929 -1.453207 61.446257 56.065490 -55.427916 -34.659986 -0.002236 -0.609931 28.855951 -7.125000 0.000000 0.000000 41.921839 -6.905964 62.897083 -83.186677 57.607714 -57.212446 1.100451 -0.888976 49.893593 7.125000 0.000000 0.000000 
3.511912 14.598286 -3.358732 2.317802 26.483750 24.219057 -6.042470 -0.949304 -70.491762 13.553333 21.002930 71.202628 2.604516 -16.812307 -7.658907 1.205300 -6.965300 -19.612600 9.064629 -6.119073 -77.762915 -15.443690 -21.066603 76.660100 -1.308979 4.332235 -11.279755 -0.035900 -1.222600 3.361500 2.485750 0.657950 6.420374 3.420037 0.589090 -1.879037 3.975784 -4.228209 24.069637 2.845400 -2.596000 13.268900 -55.231236 -1.260658 61.294393 57.472391 -55.863639 -35.898124 0.026910 -0.617214 29.417311 -7.125000 0.000000 0.000000 41.601855 -7.407603 62.867687 -84.257476 57.732654 -58.184927 1.068074 -0.893954 49.989576 7.125000 0.000000 0.000000 
3.503520 14.459059 -3.407365 1.927791 26.910423 24.398643 -5.324389 -1.278154 -72.014492 13.990420 21.200270 72.421103 2.599835 -17.097896 -7.965517 1.370900 -7.410000 -20.936000 9.341127 -6.215531 -79.136946 -15.871760 -21.196354 77.918196 -1.250900 3.978346 -11.377762 -0.042400 -1.328300 3.652700 2.421258 0.772523 6.363272 3.105292 0.662100 -1.918812 4.043873 -4.139048 24.144654 2.891600 -2.553100 13.318200 -54.913654 -0.885287 61.198819 59.256348 -56.398255 -37.470708 0.059125 -0.628933 29.990155 -7.125000 0.000000 0.000000 41.135448 -7.947093 62.935082 -85.478161 57.866464 -59.288239 1.036313 -0.895476 49.947835 7.125000 0.000000 0.000000 
